<svg width="627" height="189" viewBox="0 0 627 189" fill="none" xmlns="http://www.w3.org/2000/svg">
<path d="M17.5812 164.8H9.66V96.9385H17.8227L58.6845 151.904V96.9385H66.6057V164.8H58.7811L17.5812 109.4V164.8ZM121.191 114.761H128.726V164.8H121.384V156.734C119.452 159.6 117.037 161.854 114.139 163.496C111.241 165.138 107.957 165.959 104.286 165.959C99.8099 165.959 95.7849 164.816 92.2107 162.53C88.6365 160.211 85.8351 157.056 83.8065 153.063C81.7779 149.07 80.7636 144.659 80.7636 139.829C80.7636 134.999 81.7779 130.604 83.8065 126.643C85.8351 122.65 88.6365 119.495 92.2107 117.176C95.8171 114.858 99.8421 113.699 104.286 113.699C107.957 113.699 111.209 114.487 114.042 116.065C116.876 117.643 119.259 119.817 121.191 122.586V114.761ZM104.769 158.714C108.085 158.714 111.016 157.909 113.559 156.299C116.135 154.657 118.132 152.403 119.549 149.537C120.998 146.671 121.722 143.451 121.722 139.877C121.722 136.303 120.998 133.083 119.549 130.217C118.132 127.319 116.135 125.049 113.559 123.407C111.016 121.765 108.101 120.944 104.817 120.944C101.565 120.944 98.6829 121.765 96.1713 123.407C93.6597 125.049 91.7116 127.319 90.327 130.217C88.9424 133.083 88.2501 136.303 88.2501 139.877C88.2501 143.484 88.9263 146.72 90.2787 149.585C91.6633 152.419 93.5953 154.657 96.0747 156.299C98.5863 157.909 101.484 158.714 104.769 158.714ZM144.759 164.8V96.9385H171.034C175.8 96.9385 179.97 97.8884 183.544 99.7882C187.15 101.688 189.919 104.328 191.851 107.709C193.816 111.058 194.798 114.906 194.798 119.253C194.798 123.825 193.848 127.85 191.948 131.328C190.08 134.806 187.359 137.494 183.785 139.394C180.243 141.294 176.041 142.244 171.179 142.244H157.848V164.8H144.759ZM170.165 130.362C172.419 130.362 174.415 129.895 176.154 128.961C177.893 128.028 179.245 126.74 180.211 125.097C181.209 123.423 181.708 121.507 181.708 119.35C181.708 117.257 181.225 115.421 180.259 113.843C179.293 112.233 177.925 110.994 176.154 110.124C174.415 109.255 172.419 108.82 170.165 108.82H157.848V130.362H170.165ZM224.329 166.201C219.434 166.201 214.942 165.025 210.853 162.675C206.796 160.292 203.576 157.088 201.193 153.063C198.842 149.006 197.667 144.562 197.667 139.732C197.667 134.87 198.842 130.394 201.193 126.305C203.576 122.215 206.812 118.995 210.901 116.645C214.991 114.262 219.499 113.071 224.425 113.071C229.352 113.071 233.86 114.262 237.949 116.645C242.039 119.028 245.259 122.264 247.609 126.353C249.992 130.41 251.183 134.87 251.183 139.732C251.183 144.562 249.992 149.006 247.609 153.063C245.259 157.12 242.022 160.324 237.901 162.675C233.811 165.025 229.287 166.201 224.329 166.201ZM224.425 154.609C227.098 154.609 229.529 153.965 231.718 152.677C233.94 151.356 235.695 149.553 236.983 147.267C238.271 144.981 238.915 142.453 238.915 139.684C238.915 136.883 238.271 134.339 236.983 132.053C235.695 129.766 233.94 127.963 231.718 126.643C229.497 125.323 227.066 124.663 224.425 124.663C221.753 124.663 219.305 125.323 217.084 126.643C214.894 127.963 213.155 129.766 211.867 132.053C210.579 134.339 209.935 136.883 209.935 139.684C209.935 142.485 210.579 145.029 211.867 147.315C213.155 149.569 214.894 151.356 217.084 152.677C219.305 153.965 221.753 154.609 224.425 154.609ZM274.947 164.8H262.582V125.484H255.337V114.133H262.534V102.058L274.947 99.112V114.133H286.104V125.484H274.947V164.8ZM301.627 143.645C302.432 147.251 304.155 150.085 306.796 152.145C309.468 154.206 312.624 155.237 316.262 155.237C320.931 155.237 324.94 153.691 328.289 150.6L334.182 159.149C333.634 159.664 333.071 160.131 332.491 160.55C331.396 161.58 330.575 162.643 330.028 163.737C329.48 164.8 329.207 165.782 329.207 166.684C329.207 167.617 329.513 168.39 330.124 169.002C330.736 169.646 331.59 169.968 332.684 169.968C333.328 169.968 334.343 169.839 335.727 169.582L336.355 175.04C335.325 175.523 334.327 175.861 333.361 176.054C332.395 176.247 331.268 176.344 329.98 176.344C327.017 176.344 324.811 175.619 323.362 174.17C321.946 172.753 321.237 171.015 321.237 168.954C321.237 167.891 321.511 166.732 322.058 165.476C319.965 165.927 317.792 166.152 315.538 166.152C310.611 166.152 306.152 164.977 302.159 162.626C298.198 160.244 295.091 157.024 292.837 152.966C290.583 148.909 289.456 144.482 289.456 139.684C289.456 134.822 290.518 130.362 292.644 126.305C294.769 122.248 297.715 119.044 301.483 116.693C305.282 114.31 309.533 113.119 314.234 113.119C319.418 113.119 323.894 114.246 327.661 116.5C331.429 118.722 334.294 121.813 336.259 125.774C338.223 129.734 339.205 134.258 339.205 139.346C339.205 140.891 339.108 142.324 338.915 143.645H301.627ZM314.717 123.793C311.497 123.793 308.728 124.727 306.409 126.595C304.091 128.43 302.529 130.99 301.724 134.274H327.323C326.582 130.926 325.117 128.35 322.928 126.546C320.77 124.711 318.033 123.793 314.717 123.793ZM386.823 114.133H397.014V157.313C397.014 162.369 396.048 166.845 394.116 170.741C392.216 174.637 389.318 177.68 385.422 179.87C381.558 182.091 376.776 183.202 371.077 183.202C367.309 183.202 363.429 182.703 359.437 181.705C355.444 180.707 352.192 179.403 349.68 177.793L354.268 168.181C359.324 170.918 364.524 172.286 369.869 172.286C373.218 172.286 376.003 171.642 378.225 170.354C380.479 169.066 382.138 167.312 383.2 165.09C384.295 162.9 384.842 160.421 384.842 157.652V156.492C382.975 158.36 380.817 159.809 378.37 160.839C375.955 161.87 373.25 162.385 370.256 162.385C365.78 162.385 361.691 161.355 357.988 159.294C354.317 157.201 351.403 154.319 349.245 150.648C347.12 146.977 346.057 142.856 346.057 138.283C346.057 133.807 347.136 129.638 349.294 125.774C351.451 121.877 354.381 118.786 358.084 116.5C361.787 114.182 365.86 113.022 370.304 113.022C373.524 113.022 376.406 113.634 378.95 114.858C381.494 116.081 383.715 117.788 385.615 119.978L386.823 114.133ZM371.753 151.566C374.361 151.566 376.696 150.97 378.757 149.779C380.817 148.587 382.427 146.977 383.587 144.949C384.746 142.888 385.325 140.618 385.325 138.138C385.325 135.562 384.746 133.212 383.587 131.087C382.427 128.961 380.801 127.287 378.708 126.063C376.647 124.808 374.329 124.18 371.753 124.18C369.177 124.18 366.859 124.791 364.798 126.015C362.769 127.239 361.175 128.913 360.016 131.038C358.889 133.131 358.326 135.434 358.326 137.945C358.326 140.489 358.889 142.791 360.016 144.852C361.175 146.913 362.769 148.555 364.798 149.779C366.859 150.97 369.177 151.566 371.753 151.566ZM419.264 143.645C420.069 147.251 421.792 150.085 424.432 152.145C427.105 154.206 430.261 155.237 433.899 155.237C438.568 155.237 442.577 153.691 445.926 150.6L451.819 159.149C451.271 159.664 450.708 160.131 450.128 160.55C449.033 161.58 448.212 162.643 447.665 163.737C447.117 164.8 446.844 165.782 446.844 166.684C446.844 167.617 447.15 168.39 447.761 169.002C448.373 169.646 449.226 169.968 450.321 169.968C450.965 169.968 451.98 169.839 453.364 169.582L453.992 175.04C452.962 175.523 451.963 175.861 450.997 176.054C450.031 176.247 448.904 176.344 447.616 176.344C444.654 176.344 442.448 175.619 440.999 174.17C439.583 172.753 438.874 171.015 438.874 168.954C438.874 167.891 439.148 166.732 439.695 165.476C437.602 165.927 435.429 166.152 433.175 166.152C428.248 166.152 423.788 164.977 419.796 162.626C415.835 160.244 412.728 157.024 410.474 152.966C408.22 148.909 407.093 144.482 407.093 139.684C407.093 134.822 408.155 130.362 410.281 126.305C412.406 122.248 415.352 119.044 419.119 116.693C422.919 114.31 427.169 113.119 431.871 113.119C437.055 113.119 441.531 114.246 445.298 116.5C449.065 118.722 451.931 121.813 453.895 125.774C455.86 129.734 456.842 134.258 456.842 139.346C456.842 140.891 456.745 142.324 456.552 143.645H419.264ZM432.354 123.793C429.134 123.793 426.364 124.727 424.046 126.595C421.728 128.43 420.166 130.99 419.361 134.274H444.96C444.219 130.926 442.754 128.35 440.565 126.546C438.407 124.711 435.67 123.793 432.354 123.793Z" fill="black"/>
<path d="M414 59.2692C416.51 61.6923 465 100 465 100V40L414 59.2692Z" fill="#FFAA00"/>
<path d="M322 13C322 5.8203 327.82 0 335 0H452C459.18 0 465 5.8203 465 13V51C465 58.1797 459.18 64 452 64H335C327.82 64 322 58.1797 322 51V13Z" fill="#FFAA00"/>
<path d="M535 87.2692C532.49 89.6923 484 128 484 128V68L535 87.2692Z" fill="#FFAA00"/>
<path d="M627 48C627 40.8203 621.18 35 614 35H497C489.82 35 484 40.8203 484 48V86C484 93.1797 489.82 99 497 99H614C621.18 99 627 93.1797 627 86V48Z" fill="#FFAA00"/>
</svg>
